<svg width="50" height="50" viewBox="0 0 50 50" fill="none" xmlns="http://www.w3.org/2000/svg">
<path d="M25.0006 18.05V22.2125M25.0256 12.5C20.4256 12.5 16.7006 16.225 16.7006 20.825V23.45C16.7006 24.3 16.3506 25.575 15.9131 26.3L14.3256 28.95C13.3506 30.5875 14.0256 32.4125 15.8256 33.0125C21.8022 35 28.2615 35 34.2381 33.0125C34.6325 32.8809 34.9922 32.6625 35.2908 32.3732C35.5894 32.0839 35.8192 31.7313 35.9632 31.3413C36.1072 30.9513 36.1617 30.5339 36.1228 30.12C36.0838 29.7061 35.9524 29.3063 35.7381 28.95L34.1506 26.3C33.7131 25.575 33.3631 24.2875 33.3631 23.45V20.825C33.3506 16.25 29.6006 12.5 25.0256 12.5Z" stroke="#F0F0F0" stroke-width="1.5" stroke-miterlimit="10" stroke-linecap="round"/>
<path d="M29.1609 33.5254C29.1609 35.8129 27.2859 37.6879 24.9984 37.6879C23.8609 37.6879 22.8109 37.2129 22.0609 36.4629C21.3109 35.7129 20.8359 34.6629 20.8359 33.5254" stroke="#F0F0F0" stroke-width="1.5" stroke-miterlimit="10"/>
</svg>
