<svg width="50" height="50" viewBox="0 0 50 50" fill="none" xmlns="http://www.w3.org/2000/svg">
<g clip-path="url(#clip0_1643_16037)">
<path d="M35.9538 21.9731C35.6824 20.8329 35.2887 20.0184 34.6914 19.041" stroke="#F0F0F0" stroke-width="1.5" stroke-miterlimit="10" stroke-linecap="round"/>
<path d="M34.9219 30.6191C35.4513 29.7368 35.7499 28.6372 36.0214 27.6191" stroke="#F0F0F0" stroke-width="1.5" stroke-miterlimit="10" stroke-linecap="round"/>
<path d="M27.9727 36.0097C29.0586 35.7382 30.0089 35.1952 30.9455 34.6387" stroke="#F0F0F0" stroke-width="1.5" stroke-miterlimit="10" stroke-linecap="round"/>
<path d="M19.4492 34.8984C20.3587 35.4143 21.3768 35.8215 22.4221 36.0794" stroke="#F0F0F0" stroke-width="1.5" stroke-miterlimit="10" stroke-linecap="round"/>
<path d="M14.0469 27.9863C14.3727 29.0859 14.6985 29.9547 15.3229 30.8913" stroke="#F0F0F0" stroke-width="1.5" stroke-miterlimit="10" stroke-linecap="round"/>
<path d="M15.1337 19.2852C14.6722 20.1811 14.1156 21.3621 13.8984 22.3802" stroke="#F0F0F0" stroke-width="1.5" stroke-miterlimit="10" stroke-linecap="round"/>
<path d="M22.0008 14.0332C20.7383 14.3454 20.1682 14.6984 19.1094 15.3771" stroke="#F0F0F0" stroke-width="1.5" stroke-miterlimit="10" stroke-linecap="round"/>
<path d="M30.5635 15.1165C29.5318 14.5193 28.9074 14.1935 27.6992 13.9355" stroke="#F0F0F0" stroke-width="1.5" stroke-miterlimit="10" stroke-linecap="round"/>
<path d="M25.0675 29.7794C27.8489 29.7794 30.1036 27.5246 30.1036 24.7432C30.1036 21.9618 27.8489 19.707 25.0675 19.707C22.286 19.707 20.0312 21.9618 20.0312 24.7432C20.0312 27.5246 22.286 29.7794 25.0675 29.7794Z" stroke="#F0F0F0" stroke-width="1.5" stroke-miterlimit="10"/>
<path d="M23.3594 39.185C23.9702 39.2936 24.6082 39.3343 25.2598 39.3207C25.9114 39.3071 26.5494 39.2393 27.1739 39.1035" stroke="#F0F0F0" stroke-width="1.5" stroke-miterlimit="10" stroke-linecap="round"/>
<path d="M22.4219 36.0352L23.3585 39.1845" stroke="#F0F0F0" stroke-width="1.5" stroke-miterlimit="10" stroke-linecap="round"/>
<path d="M27.9728 35.9805L27.1719 39.1162" stroke="#F0F0F0" stroke-width="1.5" stroke-miterlimit="10" stroke-linecap="round"/>
<path d="M13.8125 33.8652C14.179 34.3675 14.5863 34.8562 15.0478 35.3041C15.5093 35.7521 16.0252 36.1594 16.5546 36.5123" stroke="#F0F0F0" stroke-width="1.5" stroke-miterlimit="10" stroke-linecap="round"/>
<path d="M15.3736 30.9863L13.8125 33.8642" stroke="#F0F0F0" stroke-width="1.5" stroke-miterlimit="10" stroke-linecap="round"/>
<path d="M19.3375 34.8691L16.5547 36.5117" stroke="#F0F0F0" stroke-width="1.5" stroke-miterlimit="10" stroke-linecap="round"/>
<path d="M10.814 23.3594C10.7054 23.9702 10.6647 24.6082 10.6783 25.2598C10.6919 25.9114 10.7597 26.5494 10.8955 27.1739" stroke="#F0F0F0" stroke-width="1.5" stroke-miterlimit="10" stroke-linecap="round"/>
<path d="M13.9657 22.4219L10.8164 23.3585" stroke="#F0F0F0" stroke-width="1.5" stroke-miterlimit="10" stroke-linecap="round"/>
<path d="M14.0206 27.9747L10.8984 27.1738" stroke="#F0F0F0" stroke-width="1.5" stroke-miterlimit="10" stroke-linecap="round"/>
<path d="M16.1353 13.8125C15.6331 14.179 15.1444 14.5863 14.6964 15.0478C14.2485 15.5093 13.8412 16.0252 13.4883 16.5546" stroke="#F0F0F0" stroke-width="1.5" stroke-miterlimit="10" stroke-linecap="round"/>
<path d="M19.0242 15.3736L16.1328 13.8125" stroke="#F0F0F0" stroke-width="1.5" stroke-miterlimit="10" stroke-linecap="round"/>
<path d="M15.1308 19.3375L13.4883 16.5547" stroke="#F0F0F0" stroke-width="1.5" stroke-miterlimit="10" stroke-linecap="round"/>
<path d="M26.6426 10.814C26.0317 10.7054 25.3937 10.6647 24.7422 10.6783C24.0906 10.6919 23.4526 10.7597 22.8281 10.8955" stroke="#F0F0F0" stroke-width="1.5" stroke-miterlimit="10" stroke-linecap="round"/>
<path d="M27.5773 13.9638L26.6406 10.8145" stroke="#F0F0F0" stroke-width="1.5" stroke-miterlimit="10" stroke-linecap="round"/>
<path d="M22.0273 14.0206L22.8282 10.8984" stroke="#F0F0F0" stroke-width="1.5" stroke-miterlimit="10" stroke-linecap="round"/>
<path d="M36.1874 16.1353C35.8209 15.6331 35.4136 15.1444 34.9521 14.6964C34.4906 14.2485 33.9747 13.8412 33.4453 13.4883" stroke="#F0F0F0" stroke-width="1.5" stroke-miterlimit="10" stroke-linecap="round"/>
<path d="M34.6367 19.0262L36.1842 16.1348" stroke="#F0F0F0" stroke-width="1.5" stroke-miterlimit="10" stroke-linecap="round"/>
<path d="M30.6602 15.1308L33.443 13.4883" stroke="#F0F0F0" stroke-width="1.5" stroke-miterlimit="10" stroke-linecap="round"/>
<path d="M39.183 26.6407C39.2916 26.0298 39.3323 25.3918 39.3188 24.7402C39.3052 24.0886 39.2373 23.4506 39.1016 22.8262" stroke="#F0F0F0" stroke-width="1.5" stroke-miterlimit="10" stroke-linecap="round"/>
<path d="M36.0352 27.5773L39.1845 26.6406" stroke="#F0F0F0" stroke-width="1.5" stroke-miterlimit="10" stroke-linecap="round"/>
<path d="M35.9805 22.0254L39.1026 22.8263" stroke="#F0F0F0" stroke-width="1.5" stroke-miterlimit="10" stroke-linecap="round"/>
<path d="M33.8633 36.1854C34.3655 35.8189 34.8542 35.4117 35.3022 34.9501C35.7502 34.4886 36.1574 33.9728 36.5103 33.4434" stroke="#F0F0F0" stroke-width="1.5" stroke-miterlimit="10" stroke-linecap="round"/>
<path d="M30.9844 34.6367L33.8622 36.1842" stroke="#F0F0F0" stroke-width="1.5" stroke-miterlimit="10" stroke-linecap="round"/>
<path d="M34.8672 30.6602L36.5097 33.443" stroke="#F0F0F0" stroke-width="1.5" stroke-miterlimit="10" stroke-linecap="round"/>
</g>
<defs>
<clipPath id="clip0_1643_16037">
<rect width="30" height="30" fill="white" transform="translate(10 10)"/>
</clipPath>
</defs>
</svg>
