<svg width="34" height="39" viewBox="0 0 34 39" fill="none" xmlns="http://www.w3.org/2000/svg">
<g clip-path="url(#clip0_943_9431)">
<path d="M12.0022 29.2568H1.49774C0.670563 29.2568 0 29.9203 0 30.7386V37.5182C0 38.3366 0.670563 39 1.49774 39H12.0022C12.8294 39 13.4999 38.3366 13.4999 37.5182V30.7386C13.4999 29.9203 12.8294 29.2568 12.0022 29.2568Z" fill="#6ACC32"/>
<path d="M24.8576 0H10.0659V5.07671H24.8576C26.9346 5.07671 28.619 6.74227 28.619 8.79806V17.5661C28.619 19.621 26.9346 21.2874 24.8576 21.2874H6.88282C5.91466 21.2874 5.13039 20.5115 5.13039 19.5537V9.75773H0V23.1649C0 24.9315 1.44809 26.3642 3.23362 26.3642H24.8576C29.7682 26.3642 33.7494 22.4254 33.7494 17.567V8.79897C33.7494 3.94057 29.7682 0.00181928 24.8576 0.00181928V0Z" fill="#EAEAEA"/>
</g>
<defs>
<clipPath id="clip0_943_9431">
<rect width="34" height="39" fill="white"/>
</clipPath>
</defs>
</svg>
