<svg width="162" height="39" viewBox="0 0 162 39" fill="none" xmlns="http://www.w3.org/2000/svg">
<g clip-path="url(#clip0_350_2983)">
<path d="M49.5835 28.7029C49.5835 28.9403 49.3858 29.1368 49.1449 29.1368H47.6886C47.4486 29.1368 47.25 28.9412 47.25 28.7029V10.5765C47.25 10.3391 47.4477 10.1426 47.6886 10.1426H55.0541C57.0051 10.1426 58.5598 10.6602 59.733 11.709C60.8924 12.7578 61.4717 14.1841 61.4717 15.9752C61.4717 17.7663 60.8924 19.1644 59.733 20.2132C58.5598 21.2766 57.0042 21.8078 55.0541 21.8078H49.5835V28.7029ZM49.5835 12.2684V19.6811H54.9695C57.5843 19.6811 59.0269 18.2548 59.0269 15.9743C59.0269 13.6938 57.5853 12.2684 54.9695 12.2684H49.5835Z" fill="#EAEAEA"/>
<path d="M65.1814 28.8985C65.1244 29.0386 64.969 29.1359 64.8136 29.1359H63.372C62.9904 29.1359 62.7642 28.8002 62.9058 28.4509L70.4552 10.38C70.5122 10.2263 70.6529 10.1426 70.8083 10.1426H73.0416C73.1969 10.1426 73.3385 10.2263 73.3946 10.38L80.9578 28.4509C81.0994 28.8002 80.8732 29.1359 80.4917 29.1359H79.0353C78.8799 29.1359 78.7245 29.0377 78.6675 28.8985L76.985 24.7305H66.8777L65.1814 28.8985ZM67.6133 22.7584H76.2513L71.9254 12.5486L67.6133 22.7584Z" fill="#EAEAEA"/>
<path d="M83.0009 19.7623C83.0009 14.2235 87.2422 10 92.8682 10C96.1055 10 98.9327 11.4409 100.828 13.9579C100.969 14.168 100.927 14.419 100.728 14.5591L99.5975 15.3705C99.3851 15.5243 99.1451 15.4688 98.9897 15.2723C97.4065 13.2019 95.3709 12.1531 92.8682 12.1531C88.6131 12.1531 85.4466 15.4542 85.4466 19.7614C85.3758 24.0694 88.6131 27.4533 92.8682 27.3842C96.5716 27.3842 99.1727 25.1883 99.6821 21.7198H96.4025C96.1625 21.7198 95.9639 21.5243 95.9639 21.2859V20.0552C95.9639 19.8178 96.1616 19.6222 96.4025 19.6222H101.704C101.93 19.6222 102.128 19.7896 102.128 20.0279C102.142 20.1816 102.142 20.3354 102.142 20.4891C102.142 25.8178 98.3103 29.5382 92.8535 29.5382C87.3967 29.5382 83 25.2865 83 19.7614L83.0009 19.7623Z" fill="#EAEAEA"/>
<path d="M108 28.8985C107.943 29.0386 107.787 29.1359 107.632 29.1359H106.19C105.809 29.1359 105.583 28.8002 105.724 28.4509L113.274 10.38C113.331 10.2263 113.471 10.1426 113.627 10.1426H115.86C116.015 10.1426 116.157 10.2263 116.213 10.38L123.776 28.4509C123.918 28.8002 123.692 29.1359 123.31 29.1359H121.854C121.698 29.1359 121.543 29.0377 121.486 28.8985L119.803 24.7305H109.696L108 28.8985ZM110.432 22.7584H119.07L114.744 12.5486L110.432 22.7584Z" fill="#EAEAEA"/>
<path d="M128.363 10.5765C128.363 10.3391 128.561 10.1426 128.802 10.1426H136.563C138.514 10.1426 140.068 10.6456 141.242 11.6671C142.401 12.6878 142.98 14.0586 142.98 15.7796C142.98 18.4785 141.397 20.4506 138.781 21.1365L143.065 28.3391C143.291 28.7311 143.036 29.1359 142.599 29.1359H140.987C140.86 29.1359 140.732 29.0795 140.661 28.954L136.265 21.4158H130.695V28.7029C130.695 28.9403 130.497 29.1368 130.256 29.1368H128.8C128.56 29.1368 128.361 28.9412 128.361 28.7029V10.5765H128.363ZM130.696 12.2411V19.36H136.478C139.121 19.36 140.549 17.9755 140.549 15.7796C140.549 13.5838 139.121 12.2411 136.478 12.2411H130.696Z" fill="#EAEAEA"/>
<path d="M148.937 29.1368C148.697 29.1368 148.498 28.9412 148.498 28.7029V10.5765C148.498 10.3391 148.696 10.1426 148.937 10.1426H161.264C161.504 10.1426 161.703 10.3382 161.703 10.5765V11.8072C161.703 12.0446 161.505 12.2411 161.264 12.2411H150.832V18.3248H159.78C160.02 18.3248 160.219 18.5204 160.219 18.7587V19.9895C160.219 20.2269 160.021 20.4234 159.78 20.4234H150.832V27.0528H161.561C161.801 27.0528 162 27.2484 162 27.4867V28.7038C162 28.9412 161.802 29.1377 161.561 29.1377H148.937V29.1368Z" fill="#EAEAEA"/>
<path d="M12.0022 29.2568H1.49774C0.670563 29.2568 0 29.9203 0 30.7386V37.5182C0 38.3366 0.670563 39 1.49774 39H12.0022C12.8294 39 13.4999 38.3366 13.4999 37.5182V30.7386C13.4999 29.9203 12.8294 29.2568 12.0022 29.2568Z" fill="#6ACC32"/>
<path d="M24.8576 0H10.0659V5.07671H24.8576C26.9346 5.07671 28.619 6.74227 28.619 8.79806V17.5661C28.619 19.621 26.9346 21.2874 24.8576 21.2874H6.88282C5.91466 21.2874 5.13039 20.5115 5.13039 19.5537V9.75773H0V23.1649C0 24.9315 1.44809 26.3642 3.23362 26.3642H24.8576C29.7682 26.3642 33.7494 22.4254 33.7494 17.567V8.79897C33.7494 3.94057 29.7682 0.00181928 24.8576 0.00181928V0Z" fill="#EAEAEA"/>
</g>
<defs>
<clipPath id="clip0_350_2983">
<rect width="162" height="39" fill="white"/>
</clipPath>
</defs>
</svg>
